<?xml version="1.0" encoding="utf-8"?>
<!-- Generator: Adobe Illustrator 25.2.0, SVG Export Plug-In . SVG Version: 6.00 Build 0)  -->
<svg version="1.1" id="Слой_1" xmlns="http://www.w3.org/2000/svg" xmlns:xlink="http://www.w3.org/1999/xlink" x="0px" y="0px"
	 viewBox="0 0 905 1280" style="enable-background:new 0 0 905 1280;" xml:space="preserve">
<style type="text/css">
	.st0{fill:none;stroke:#000000;stroke-miterlimit:10;}
</style>
<g transform="translate(0.000000,1280.000000) scale(0.100000,-0.100000)">
	<path class="st0" d="M5844,11906c-235-188-360-392-386-632c-12-100-10-121,32-477c49-416,58-608,38-765c-8-57-11-105-8-107
		c8-5,187,177,247,250c157,193,249,399,268,596c6,75,5,81-55,265c-111,344-141,465-147,594s9,190,64,272c42,63,45,68,36,68
		C5928,11970,5888,11941,5844,11906z"/>
	<path class="st0" d="M6435,11643c0-138-14-186-103-347c-30-56-95-180-144-277c-76-151-91-189-104-265c-40-231-155-450-376-717
		c-49-60-88-111-85-113c2-3,55,14,118,37c63,22,122,42,132,42c9,1,17,5,17,10c0,4,4,6,9,3c5-4,12,0,14,6c3,8,6,9,6,2
		c1-6-55-48-124-94c-136-90-165-115-124-106c13,3,67,7,119,10l95,5l-66-14c-113-23-189-47-189-60c0-14,31-25,69-25c13,0,52-14,88-31
		c52-25,91-57,196-163c141-142,208-192,327-242c228-98,492-80,610,41c38,39,34,41-36,20c-63-19-107-18-168,3c-40,15-64,35-145,127
		c-120,136-239,233-358,292c-81,41-102,47-180,52l-88,7l140,7c417,21,562,59,698,187c52,48,73,78,115,165c68,138,115,207,194,280
		c77,72,159,114,251,129c92,14,89,36-8,54c-239,45-483-43-873-315c-70-49-149-102-177-118c-27-15-61-35-75-43s-9-2,10,14
		c73,59,194,181,240,243c63,84,123,205,154,313c74,255,45,637-63,845c-39,75-95,153-109,153C6438,11760,6435,11707,6435,11643z
		 M5985,10054c-31-24-55-35-55-26c0,5,15,16,33,25C6004,10073,6010,10073,5985,10054z"/>
	<path class="st0" d="M4749,11283c-32-76-33-82-33-213c0-97,5-153,18-200c21-80,90-226,151-324c43-70,55-80,269-236l224-163l41-88
		c42-92,65-111,75-61c43,216,28,360-55,527c-69,137-173,262-254,302c-141,71-301,196-350,274c-48,74-54,154-20,242c5,13,2,17-13,17
		S4775,11342,4749,11283z"/>
	<path class="st0" d="M4440,10551c0-5,14-49,31-98c106-299,262-460,472-483c121-14,290-57,281-71c-3-5,1-6,9-3c18,7,102-35,146-71
		c27-23,32-25,37-10c12,30-4,162-25,209c-24,56-106,144-177,191c-32,21-104,52-181,76c-259,83-478,179-546,239
		C4451,10561,4440,10566,4440,10551z"/>
	<path class="st0" d="M2704,9995c55-72,80-143,84-240c3-87,1-96-63-304c-103-337-118-402-110-480c15-144,82-292,201-451
		c79-104,240-274,253-266c4,3,1,51-6,108c-19,136-11,312,27,643c35,308,37,394,10,500c-37,144-103,256-220,373
		c-63,64-175,152-192,152C2682,10030,2690,10014,2704,9995z"/>
	<path class="st0" d="M4965,9862c-132-51-325-136-325-142c0-15,100-105,135-121c68-31,119-25,251,32c179,77,271,109,314,109
		c33,0,37-3,33-20c-4-16-14-20-47-20c-22,0-58-5-78-10c-44-12-159-88-238-156c-73-62-74-87-7-116c48-21,49-21,95-2
		c37,15,60,37,110,102c64,82,109,124,147,136c15,4,24-2,37-23l16-29l-85-124c-156-228-204-319-310-583c-156-389-241-646-262-797
		c-8-59-16-76-75-158c-253-353-396-809-400-1277c0-90-4-163-7-163s-20,22-36,49c-17,26-95,126-175,222c-439,529-783,982-872,1151
		c-19,35-19,36,3,71c29,48,42,41,122-58c75-93,118-125,168-125c40,0,81,23,81,45c0,8-29,44-64,80c-78,80-147,115-228,115
		c-32,0-58,3-58,8c0,4-3,17-6,28c-5,20-3,21,33,14c58-10,153-52,146-63c-4-6,0-8,10-4c22,8,49-2,40-16c-3-6-1-7,6-3c6,4,54-9,107-29
		c106-39,139-38,200,7c64,48,107,118,71,118c-8,0-82,27-165,60c-139,56-156,60-229,60c-55,0-90-6-120-20c-24-10-43-15-43-11
		c0,13,117,54,131,45c8-4,10-3,5,4c-4,7-5,12-2,12s76,18,163,41l158,41l63,61c121,118,203,247,224,353c6,30,9,57,6,60s-49-24-101-60
		c-53-36-115-70-139-76c-415-111-608-257-608-462v-68l-26,10c-44,17-65,11-106-30c-22-21-64-51-95-65c-244-111-380-294-409-547
		c-8-69,1-73,63-28c23,17,83,52,133,79c76,40,99,58,136,107c74,99,133,242,134,329l1,30l14-32c8-18,18-33,23-33c6,0,1-35-10-77
		l-20-78l23-127c21-118,24-128,45-128c13,0,35,15,53,35c41,47,41,97,0,213c-39,108-42,136-12,140c18,3,30-13,76-95
		c177-315,541-811,1043-1421c49-59,53-68,64-145c26-184,166-629,252-802c123-247,276-447,641-839c87-94,87-94,153-257
		c157-395,262-770,319-1137c40-258,48-393,41-657c-9-302-20-364-29-164c-23,529-180,945-516,1369c-303,382-517,736-615,1018
		c-56,160-68,249-64,444c2,142,1,168-11,166c-16-3-51-131-97-348c-23-106-28-158-32-339c-6-310,15-415,134-656
		c56-115,77-146,184-269c570-657,860-1289,860-1871c0-106-24-392-33-402c-2-2-7,41-10,94c-10,161-78,393-150,513
		c-11,19-73,89-137,155c-197,204-312,364-366,512c-32,86-36,158-17,306c5,42,6,77,3,77c-14,0-121-241-140-315c-39-152-23-258,64-440
		c50-104,61-117,178-235c182-184,284-330,353-508c48-125,65-234,65-421c0-173-11-265-39-344c-17-50-17-56-2-87c28-58,42-59,107-9
		c100,77,309,290,361,369c281,423,455,809,508,1129c23,137,16,429-14,611c-60,354-230,816-366,990c-105,136-221,346-346,630
		c-43,97-101,208-142,270c-245,374-362,772-343,1165c24,496,172,775,464,879c82,29,96,31,232,31c121,0,158-4,223-23
		c111-32,192-76,253-136c95-96,129-201,121-381c-5-138-28-203-99-280c-63-69-191-137-271-142c-70-5-153,29-184,76
		c-29,43-32,147-6,187c31,48,125,79,192,62c31-7,20,22-15,37c-105,44-212-15-249-137c-26-90-15-148,41-200c43-40,137-79,203-85
		c54-5,66-2,152,39c111,53,164,94,219,167c70,93,97,239,75,398c-16,112-132,300-229,373c-114,85-200,110-379,110
		c-166,0-258-18-358-72c-244-130-387-319-460-608c-40-160-36-554,7-760c4-17-1-12-15,15c-12,22-41,66-65,99c-32,42-50,80-65,135
		c-77,288-120,965-91,1436c13,218,48,529,66,592c26,94,125,172,294,231c135,47,232,65,303,57c123-14,312-136,375-244
		c23-39,27-59,30-142c8-203-60-299-240-339c-39-9-58-18-58-28c0-21,117-10,192,18c166,62,295,300,267,495c-32,232-201,378-506,440
		c-69,14-94,15-158,5c-124-19-239-63-376-146c-31-19-60-34-64-34c-11,0,1,58,60,275c65,243,138,455,216,635c108,245,286,547,316,536
		c8-3,23-6,34-6c31,0,24-47-26-182l-45-122l25-51c27-56,78-111,93-101c17,10,41,95,57,202c13,89,13,107,0,158c-8,31-22,70-30,85
		c-13,27-13,30,10,51c14,13,28,32,31,43c4,14,13-7,30-69c41-159,84-264,127-311c58-63,359-263,396-263c15,0,8,64-20,169
		c-37,141-157,333-270,435c-64,58-160,106-211,106c-31,0-40,5-58,35c-31,50-57,65-113,65c-37,0-53-5-71-23l-24-24l-38,30
		c-67,51-159,89-227,94C5073,9900,5052,9895,4965,9862z M3250,8192c0-5-14-21-30-37c-21-20-33-26-41-18c-7,7-1,18,21,37
		C3232,8200,3250,8207,3250,8192z M4638,7394c-17-187-22-309-22-559c-1-335,6-429,50-714c14-90,23-165,21-168c-3-2-18,15-33,38
		c-16,23-48,63-71,88c-106,118-143,272-143,599c0,325,44,562,152,825c29,69,44,94,50,85c7-9,8-8,7,7c-2,30,0,49,6,43
		C4658,7636,4650,7526,4638,7394z M4651,5860c49-63,73-108,128-246c80-196,159-370,260-573c40-79,70-145,67-148s-43,52-89,123
		c-259,398-420,710-467,906c-27,112-25,120,11,64C4577,5959,4618,5903,4651,5860z M4964,5415c9-14,13-25,8-25s-14,11-20,25
		s-10,25-8,25S4955,5429,4964,5415z M5088,5208c188-318,441-790,405-753c-100,99-155,173-220,296c-64,119-293,592-293,604
		C4980,5380,5012,5336,5088,5208z M5493,4273c-4-10-2-14,4-10s41-33,79-81c74-95,118-192,195-431c124-388,177-743,166-1110
		c-10-326-65-608-180-911c-43-115-97-234-102-228c-2,2,5,33,16,68c59,189,115,468,141,695c18,164,15,550-6,725
		c-41,339-115,658-238,1025c-44,132-81,248-81,258c-1,9-5,17-9,17s-8,5-8,11c0,8,4,8,14-1C5492,4294,5496,4281,5493,4273z
		 M5984,3400c57-173,96-332,122-497c22-138,29-398,15-507c-28-208-106-437-237-696c-65-129-229-409-255-435c-5-5,26,60,70,145
		c168,327,261,619,303,950c19,156,16,602-5,760c-15,105-76,427-92,487C5886,3676,5939,3535,5984,3400z"/>
	<path class="st0" d="M6098,9843c7-3,16-2,19,1c4,3-2,6-13,5C6093,9849,6090,9846,6098,9843z"/>
	<path class="st0" d="M2180,9738c-74-152-91-230-97-433c-3-106-1-198,6-245c26-169,102-311,236-445l80-80l-134,78
		c-190,112-341,189-451,233c-78,30-111,38-187,42c-88,4-183-10-183-28c0-4,30-15,68-24c124-30,240-135,311-281
		c70-146,159-241,276-296c108-51,165-61,373-66c105-3,192-9,192-13s-11-5-24-3c-37,7-144-24-214-64c-46-25-107-78-211-183
		c-81-81-162-154-183-163c-40-19-93-21-150-8c-29,7-38,6-38-4c0-18,85-73,134-86c61-17,290-7,351,15c124,45,158,68,300,206
		c139,134,227,195,308,214c45,11,33,33-25,45c-88,17-96,20-34,15c33-3,65-8,73-11s13,2,13,13c0,14-33,37-115,82
		c-69,38-113,68-109,74c4,7,2,8-5,4c-10-6-121,59-121,71c0,1,16-5,35-14s35-21,35-25c0-5,5-6,12-2c7,5,8,3,3-6c-5-8-3-11,6-8
		c8,3,30-1,49-9c109-46,220-81,220-71c0,6-28,39-63,73c-79,76-162,201-226,337c-49,102-121,299-136,368c-4,19-41,94-81,166
		c-90,160-175,337-204,422c-17,52-20,77-14,138c6,65,5,74-10,74C2235,9840,2213,9807,2180,9738z M2808,8173c-10-2-28-2-40,0
		c-13,2-5,4,17,4C2807,8178,2817,8176,2808,8173z"/>
	<path class="st0" d="M3676,9463c15-67,8-121-25-186c-29-60-36-67-120-116c-304-180-461-400-461-646c0-63,11-160,25-222
		c3-15,13-23,25-23c16,0,20,7,20,33c0,41,33,114,68,150c15,16,70,57,123,92c115,77,234,186,295,271c121,170,169,370,129,544
		c-20,86-34,119-56,130C3670,9506,3667,9502,3676,9463z"/>
</g>
</svg>
