<?xml version="1.0" encoding="utf-8"?>
<!-- Generator: Adobe Illustrator 25.2.0, SVG Export Plug-In . SVG Version: 6.00 Build 0)  -->
<svg version="1.1" id="Слой_1" xmlns="http://www.w3.org/2000/svg" xmlns:xlink="http://www.w3.org/1999/xlink" x="0px" y="0px"
	 viewBox="0 0 1280 640" style="enable-background:new 0 0 1280 640;" xml:space="preserve">
<style type="text/css">
	.st0{fill:#FFFFFF;}
</style>
<g transform="translate(0.000000,640.000000) scale(0.100000,-0.100000)">
	<path class="st0" d="M7136.9,2183.2c28.9,29.1,29.9,34.1,25.7,94.1c-6.3,95-34.4,131.9-147.6,189.5c-82.1,41.7-116.2,48.6-75,15.8
		c8-8,27.1-32.9,41.2-56.9c23.1-39.9,25.2-48.9,18.4-121.9c-7.7-89,0.4-113,45.4-135.9C7087,2146,7103,2149.1,7136.9,2183.2z"/>
	<path class="st0" d="M5771.9,2168c40.9,25.1,45.9,45.1,37.6,139.1c-8.3,87,0.6,117,48.5,161.2c46.9,44.1,26.9,43.1-65-5.2
		c-112.8-58.3-140.7-95.4-146.4-190.5c-3.8-60-2.8-65,26.3-93.9C5708,2143.8,5728,2141.8,5771.9,2168z"/>
	<path class="st0" d="M6874.2,2384.4c21.9,24.1,27.7,97.1,10.6,140c-14.1,37-62.2,77.8-133.4,113.6c-68.1,33.8-86.1,33.7-47-2.1
		c41.1-36.9,52.2-71.8,45.5-148.9c-5.8-67-4.8-73,18.3-97.9C6799.3,2355.1,6845.3,2353.3,6874.2,2384.4z"/>
	<path class="st0" d="M6022.3,2366.7c28,11.1,40.8,58.1,34.6,134.1c-5.2,74-5.2,74,30.6,116.1c19.9,22.1,35.9,44.1,35.9,47.1
		c0,15-137.8-66.4-169.7-98.5c-29.9-32.1-34.9-44.1-37.7-99.1c-2.8-53-0.8-65,18.3-84.9C5954.3,2360.5,5991.3,2353.6,6022.3,2366.7z
		"/>
	<path class="st0" d="M7849.2,2398.4c64.9,31.2,136.7,109.4,158.5,172.5c9.9,28,20.8,59.1,25.8,71.1c6.9,17,22.9,22.1,100.9,32.3
		c211.9,28.7,565.7,109.8,873.4,199.7c84.9,25.3,158.9,45.5,163.9,45.5c15,0-15.6-116-48.4-180.2c-39.8-79.1-91.6-135.3-153.5-168.5
		c-41.9-22.1-63.9-27.2-125.9-26.4c-64-0.2-85,3.7-140.1,30.6c-36.1,16.9-80.1,40.8-98.2,52.7c-48.1,32.9-39,7.9,15.1-40
		c84.2-73.7,135.3-94.6,233.3-94.3c76,0.2,93,4.3,150.9,32.5c133.8,66.4,238.3,218.7,245.9,355.8c1.9,38,4.8,68,5.8,68
		c1,0,75.9,25.2,166.8,56.5c150.8,51.5,308.7,94,350.7,95.1c15,0,18-9.9,18.2-63.9c0.2-72,22.4-114.9,79.5-152.8
		c45.1-30.9,132.1-31.6,179-2.4c52.9,32.2,80.6,130.3,48.5,170.2c-43.2,54.9-130.2,67.6-172.1,24.5c-32.9-32.1-32.8-78.1,0.3-110
		c25.1-24.9,85.1-34.7,85-13.7c0,5-5,7-11,4c-14-9-55,1.8-73.1,20.8c-40.1,38.9,0.6,114,61.6,114.2c47,0.1,100.1-31.7,108.2-65.7
		c9.1-36-10.7-95-40.6-124.1c-17.9-17.1-39.9-25.1-78.9-28.2c-98-8.3-165.1,44.5-174.4,138.5c-8.3,90-5.3,94,99.6,113.3
		c51,9.2,137.9,23.4,192.9,31.6l99,14.3l36.1-25.9c19-14.9,71.2-55.8,115.3-90.6c139.3-111.6,267.5-157.2,364.4-130.9
		c59,16.2,122.7,81.4,139.6,143.4c11.9,41,11.6,122-0.5,167c-3,13,13,15,101,15.3c58,0.2,168-2.5,245-5.2c79-3.8,112-2.7,75,1.2
		c-36,3.9-97,7.7-135,8.6c-133,2.6-97.1,17.7,71.9,30.2c375.9,28.2,648.9,42,837.9,43.6c147,0.5,196,3.6,188,11.6
		c-17.1,16.9-892.9-23.8-1080.9-49.3c-23-4.1-42-4.1-42-2.1c0,3,23.9,22.1,52.9,43.2c45.9,34.1,57.9,38.2,101.9,36.3
		c37-1.9,66,4.2,104.9,22.3c75.9,34.2,211.8,72.7,289.8,80.9c59,6.2,146-1.5,207.1-19.4c33-8.9,30.9,26.1-3.2,60
		c-35.1,33.9-86.2,48.7-161.1,43.5c-34-1.1-59-0.2-57,2.8c2,4,48.9,26.2,103.8,49.3c88.9,38.3,106.8,50.3,159.7,108.5
		c32.9,36.1,59.8,69.2,59.8,73.2c0,13-153,10.5-186-1.6c-15-6-56.9-33.2-92.8-59.3c-35.9-27.1-78.8-57.2-95.8-67.3
		c-27.9-18.1-27.9-17.1,11.9,36c64.7,86.2,76.6,134.2,47.4,190.1c-16.1,32-35.1,39.9-35,15.9c0.1-28-37.7-102.1-84.5-164.3
		c-25.9-34.1-104.6-113.3-175.5-175.5c-102.7-90.3-129.6-118.4-134.6-145.4c-4.9-25-20.9-43.1-74.7-82.2l-68.8-50.2l-120-12.4
		l-119-12.4l-38.1,40.9c-81.3,85.7-223.4,129.3-456.4,138.6l-148,5.5l115.9,34.4c148.9,42.5,238.8,80.7,314.6,133
		c37.9,26.1,70.9,41.2,89.9,41.3c66,0.2,119.8,49.4,119.7,107.4c-0.1,23,4.9,33,14.9,33s15-10,15.1-28c0.1-34,37.2-71.9,69.2-71.8
		c13,0,50.9,18.2,84.9,41.3c59.9,40.2,61.9,41.2,127.9,36.4c39-2.9,68-1.8,68,3.2c0,6-13.1,24-29.1,41.9
		c-28.1,30.9-34.1,32.9-113.1,37.6c-81,4.7-83,5.7-83.1,29.7c-0.1,23,4.9,26,49.9,31.2c65,8.2,76,13.2,100.8,52.3
		c15.9,24,22.8,54.1,26.6,117.1c2.9,47,8.7,96,12.7,109c5.9,21,4.9,22-14,12c-12-6-59-15.2-103.9-20.3c-46-4.1-94-13.3-105.9-20.3
		c-27-14.1-47.8-54.1-56.7-106.2c-10.8-66-15.8-76-32.8-73.1c-14,3-17.1,16.9-17.3,80.9l-0.2,78l-42.1,39.9
		c-23.1,20.9-47.1,38.9-53.1,38.8s-9.9-34-9.7-88c0.2-78-2.7-91-20.7-108.1c-32.9-29.1-50.8-78.2-39.7-108.1
		c12.1-30,48.2-55.9,78.2-55.8c36,0.1,27-15.9-16.9-29.1c-54-16.2-79.8-58.2-79.6-128.2c0.1-47-2.8-54-31.8-76.1
		c-105.8-80.3-268.6-133.8-718.3-238.2c-278.8-64.9-368.7-91.1-564.5-163.7c-88.9-32.3-165.8-59.5-170.8-59.5
		c-5,0-26.1,21.9-48.2,49.9c-22.1,26.9-42.2,49.9-45.2,49.9c-3,1-24.1,17.9-47.1,37.9l-43.1,36.9l89.7,91.3
		c76.8,79.2,94.7,92.3,129.7,97.4c31,4.1,53.9,18.2,100.8,61.3c138.6,129.4,314.3,217,435.3,217.3c31,0.1,33,2.1,22.9,20.1
		c-28.2,52.9-120.2,63.6-214.1,24.3l-59.9-24.2l95.7,92.3c86.7,84.3,96.7,98.3,121.5,166.4c14.9,40,24.8,76.1,21.8,78.1
		c-7,7-73-16.2-126.9-43.4c-50.9-25.2-68.9-45.2-143.5-152.4c-49.8-72.2-77.7-96.2-50.9-45.2c19.9,41.1,36.6,128.1,29.5,162.1
		c-3,16-21.1,43.9-40.2,61.9l-34.1,32.9l0.2-60c0.1-32-4.8-79-10.7-104c-10.9-48-80.4-196.2-153-325.5
		c-30.8-57.1-44.7-91.1-44.6-119.1c0.1-42-28.8-80.1-136.4-179.4l-51.9-48.2l-48.1,23.9c-152.2,76.5-389.3,83.8-616.1,21.1
		c-85.9-24.3-262.7-91.8-284.7-108.9c-19.9-17.1-14-3,23.8,53.1c65.7,99.2,160,313.5,149.9,343.5c-2,6-13.9-21-26.8-59.1
		c-34.7-108.1-74.4-190.2-134.1-281.4c-58.7-88.2-103.6-131.3-197.4-187.6l-56.9-35.2l-62.1,24.8c-96.1,38.7-215.2,55.3-348.2,48.9
		c-98-4.3-133-11.4-239.9-45.7c-129.9-41.4-247.8-68.8-337.8-76c-28-2.1-52-3.2-52-2.2s28,13.1,61.9,25.2
		c109.9,40.3,209.6,117.7,247.4,190.8c29.8,58.1,143.5,154.4,207.5,174.6c16,6,30,1.1,52.1-16.8c52.1-43.8,106.1-42.7,172,5.5
		c25.9,19.1,33,3.1,9.1-21c-49.8-50.2-6.6-131,68.4-130.8c59,0.2,91-15.7,143.2-71.6l47.2-50.9l5.9,37c10.8,55-1.3,83-55.4,134.8
		c-52.2,49.8-62.2,73.8-34.3,84.9c18,7.1,34-0.9,52.1-24.8c6-10,28.1-22.9,46.1-28.9c51.1-16.8,107,4.3,158.8,57.5
		c22.9,24.1,56.8,53.2,74.8,65.2l33.9,21.1l-29,12.9c-16,8-53.1,34.8-83.2,58.7c-84.2,69.7-122.2,71.6-211,9.3
		c-83.8-58.3-96.9-22.3-19.2,52.9c48.9,48.2,49.8,49.2,49.7,110.2c-0.1,34-4.2,62-8.2,62c-5,0-21-14.1-37.9-31.1
		c-43.9-47.1-103.7-89.3-118.7-83.4c-22,8.9-83-15.3-99.9-39.3c-20.9-30.1-18.8-70.1,5.3-100c23.1-28.9,9.1-48-17.9-24.1
		c-31.1,26.9-60.1,28.8-106,8.7c-24-11.1-51.9-32.2-60.9-46.2c-10-14-42.9-40.1-73.8-56.2c-30.9-17.1-74.9-48.2-96.8-70.3
		l-41.9-39.1l0.8,72c1.5,175-101.9,296.7-249.9,296.2c-46-0.1-129.9-37.4-160.8-71.5c-95.7-105.3-50.1-289.2,75.9-305.8
		c80-10.8,171.8,59.5,171.6,130.5c-0.2,55-53.4,116.8-100.4,116.7c-24-0.1-80.9-33.3-91.8-54.3c-10.9-21-10.9-21,13,1
		c54.8,50.2,106.8,49.3,148-2.5c46.2-58.9,12.4-137-74.5-170.2c-79.9-30.2-149,6.5-175.3,95.5c-29.3,95.9,32.4,205.1,133.3,235.4
		c28,8.1,60,15.2,71,15.2c74,0.2,159.2-57.5,198.4-133.4c29.2-56.9,36.5-176.9,14.8-243c-30.7-93.1-115.5-168.4-245.3-217.8
		c-88.9-33.3-146.9-40.5-214.9-26.7c-52,10.8-58,14.8-72.1,47.8c-16.1,40-122.6,191.6-133.6,191.6c-11,0-116.5-152.4-132.4-193.4
		c-8.9-20-17.9-37.1-19.9-37.1c-2,0-28-4.1-57-10.2c-153.9-29.5-380.2,77.8-443.7,210.6c-87.6,184.7,22.7,408.1,202.7,408.6
		c73,0.2,167.2-60.5,195.4-126.4c31.2-71.9,3.5-176-57.3-213.2c-40.9-25.1-70.9-25.2-124-1.4c-79.1,35.8-107.3,108.7-63.5,164.8
		c40.8,52.1,93.8,53.3,146,4.5c13-12,23.1-16.9,23-9.9c0,14-50.2,48.8-82.2,56.7c-55,13.8-117.9-47.4-117.7-112.4
		c0.2-71,92.4-140.7,172.4-129.5c102,14.3,160.5,153.5,108.2,255.3c-25.1,47.9-55.2,75.8-111.3,100.7
		c-88.1,39.7-180.1,21.4-250.8-49.8c-57.8-58.2-82.6-127.3-81.3-227.3l1.2-72l-42.1,38.9c-22.1,21.9-66.2,52.8-97.2,69.7
		c-31,15.9-64.1,41.8-74.2,55.8c-9,14-37.1,34.9-61.1,45.8c-46.1,19.9-75.1,17.8-106-9.3c-26.9-24.1-41-5.1-18.1,23.9
		c23.9,30.1,25.8,70.1,4.7,100c-17.1,23.9-78.1,47.8-100.1,38.7c-15-6-75.1,35.8-119.3,82.6c-17.1,16.9-33.1,30.9-38.1,30.9
		c-4,0-7.9-28-7.8-62c0.2-61,1.2-62,50.3-109.8c47.1-45.9,60.2-70.8,42.3-81.9c-8-5-24,4.9-101.2,55.7
		c-53.1,35.8-103.1,22.7-184.8-50.6c-20.9-18.1-51.9-40.2-68.9-47.2l-30-13.1l24-11.9c13-8,49.1-36.8,79.2-64.8
		c66.2-62.8,114.3-81.6,165.2-64.5c19,6.1,40.9,19.1,46.9,29.1c17.9,24.1,33.9,32.1,51.9,25.2c28-10.9,18.1-34.9-33.7-85.1
		c-53.8-52.2-65.8-80.2-54.6-135.2l6.1-37l46.8,51.1c51.8,56.2,83.8,72.3,142.8,72.4c75,0.2,117.7,81.4,67.6,131.2
		c-24.1,23.9-17.1,39.9,8.9,21c9-7,33.1-19.9,52.1-27.8c40.1-18.9,95-6.7,124.9,26.4c24.9,28.1,41.9,25.1,105-15.7
		c71.1-45.8,127.3-99.6,150.4-143.5c38.2-73.9,153.5-160.5,257.6-194.2c29-8.9,53.1-17.8,53.1-19.8c0-7-115,5.6-185.1,20.4
		c-39,7.9-119.1,29.6-180.2,48.4c-60.1,18.8-116.1,34.6-125.1,33.6c-23-1.1,112.1-45.7,245.3-81.2c105.1-27.7,135.1-31.6,240.1-30.3
		c66,1.2,137,6.4,157,12.5c44,12.1,44,11.1,25.2-72.9l-11.8-50l-69.9-18.2c-39-10.1-123.9-23.4-189.9-29.6
		c-253.9-24.8-617.2,49.1-871.6,177.3l-59.1,29.8l40,16.1c88.9,38.3,166.8,50.5,323.8,51c90,1.3,138,4.4,115,8.4
		c-119.1,20.6-321-1-431.9-46.3l-61.9-25.2l-57.1,34.8c-94.2,55.7-139.3,98.6-197.6,185.4c-59.3,88.8-100.5,172.7-135.9,279.6
		c-13.1,38-25.2,65.9-28.2,63.9c-7-8,45.5-152.9,81.7-224.7c19.1-36.9,50.3-90.8,70.4-120.8c20.1-28.9,36.2-53.9,36.2-55.9
		c0-2-23,7.9-52.1,21.8c-89.1,42.7-278.3,100.1-383.4,117.8c-170.1,27.5-359,5.9-477.8-54.5c-27-13.1-50.9-23.2-52.9-21.2
		c-2,2-44.1,42.9-94.3,92.7c-83.3,81.7-90.3,90.7-84.4,119.7c4.9,27-7.2,53-70.5,164.8c-108.6,189.7-137.8,265.6-145.1,367.6
		l-5.3,83l-31.9-31.1c-17.9-18.1-35.9-45.1-38.8-61.1c-6.9-34,10.4-121,30.5-161.9c27.2-50.9-0.9-27-51.1,44.8
		c-82.4,119.7-107.4,142.7-191.5,173.4c-41,14.9-77.1,24.8-80.1,21.8c-7-8,35.4-115.9,61.5-157.8c12.1-19,57.2-65.8,99.3-103.7
		c42.1-37.9,75.2-69.8,73.2-71.8c-2-2-23,4.9-47.1,16.9c-88.1,42.7-191.1,32.4-219.9-21.7c-9.9-18-7.9-20,23.1-19.9
		c18,0.1,60-6.8,92-14.7c121.1-31.6,226.3-91.3,339.6-194.9c52.1-47.8,75.2-61.8,106.2-65.7c35-4.9,53.1-18.8,130.3-96.6l90.3-90.7
		l-42.9-37.1c-22.9-20.1-43.9-37.1-46.9-38.1c-3,0-22.9-23.1-44.8-50.1c-21.9-28.1-42.8-50.1-47.8-50.1c-5,0-82.1,26.7-171.2,58.5
		c-196.2,71.4-286.3,97.1-565.5,160.2c-452.3,101.6-613.5,154.1-719.7,234.8c-29.1,21.9-32.1,29.9-32.2,75.9
		c-0.2,69-26.3,110.9-80.4,126.8c-44,12.9-53.1,28.8-17.1,28.9c30,0.1,65.9,26.2,76.8,56.2c10.9,29-1.2,65-35.3,105.9
		c-22.1,25.9-25.1,38.9-25.4,113.9c-0.1,46-4.3,84-9.3,84c-17-0.1-70.8-51.2-86.7-81.3c-9.9-19-13.8-51-11.7-92
		c3.2-56,1.2-62-15.8-62c-16,0-22,10.9-31.2,59.9c-20.3,108.9-44.4,128.9-165.4,137.5c-41,2.9-86,8.7-99,12.7c-21,5.9-23,4.9-16-12
		c4-10,10.2-57,12.3-104c4.2-65,10.3-93,26.4-116.9c26.1-38.9,37.1-43.9,102.2-51.7c45-4.9,50-7.8,50.1-30.8
		c0.1-24-1.9-25-82.9-30.3c-79-5.2-85-7.3-112.9-38.3c-15.9-18-28.9-36.1-28.9-42.1c0-5,29-5.9,67-2.8c67,5.2,69,4.2,129.1-35.6
		c34.1-22.9,73.1-40.8,86.1-40.7c32,0.1,67.9,39.2,67.8,73.2c-0.1,17,4.9,27,14.9,27c9,0,15-9,15.1-24
		c0.2-64,53.4-115.8,118.4-115.6c21,0.1,52-13.8,92.1-40.7c76.2-51.8,166.3-89.5,315.4-131l116.1-33.6l-148-6.5
		c-232-10.7-374.8-55.2-455.6-141.4l-36.9-40.1l-120,10.6l-120,11.6l-67.1,47.8c-50.1,34.8-70.2,56.8-77.3,80.8
		c-6.1,22-38.2,57.9-100.4,113.7c-192.5,172.4-260.8,254.2-289.1,343.1c-7.1,24-16.1,43-20.1,42.9c-12,0-37.8-57.1-37.7-84.1
		c0.1-38,17.2-75.9,63.4-135.8c40.2-52.9,40.2-53.9,12.1-36c-17,9.9-60.1,39.8-96.2,66.7c-36.1,25.9-78.2,52.8-93.2,58.7
		c-33,11.9-186,13.4-186,0.4c0-4,27.1-36.9,60.2-72.8c53.2-57.8,71.2-69.8,160.3-107.5c55.1-22.8,102.1-44.7,104.2-48.7
		c2-3-23-4.1-57-3.2c-75,4.8-126-10.4-160.9-44.5c-33.9-34.1-35.8-69.1-3.8-60c61.9,18.2,148.9,26.5,207.9,20.6
		c78-7.8,214.1-45.3,290.2-79.1c39.1-17.9,68.1-23.8,105.1-21.7c44,2.1,56-1.8,102.1-35.7c29.1-20.9,53.1-39.8,53.1-42.8
		c0-2-19-2.1-43,1.9c-79,9.8-471.1,32.5-770.1,43.6c-225,8.3-301,8.1-309,0c-9-9,37-11.9,188-11.4c272-0.2,1020.1-42.8,992.2-56.9
		c-7-4-69-11.2-138-14.4c-315.9-19-595.8-78.8-705.5-151.2c-95.8-64.3-122.5-154.4-64.3-219.2c25.1-27.9,36.1-32.9,72.1-31.8
		c35,1.1,48,8.1,70.9,33.2c34.9,39.1,35.8,74.1,1.7,107c-19.1,19.9-31.1,23.9-52.1,18.8c-58-14.2-77.8-57.2-41.7-90.1
		c21.1-18.9,70-13.8,70,7.2c0,9-3,9-12,0c-17.9-18.1-46-14.1-58,6.8c-14.1,27-3.1,48,31.8,60.1c26,9.1,33,7.1,55-14.8
		c46.1-45.9,6.4-114-67.6-114.2c-63-0.2-99.2,50.7-85.4,122.7c6.9,39,62.7,96.2,122.6,126.4c138.8,69.4,448.6,120.4,856.6,139.7
		c154,7.5,159,7.5,151-11.5c-14.9-37-16.6-125.1-3.5-171c16.2-57,79.4-124.8,134.4-142.6c110.1-35.7,234.9,20.7,479.3,218.5
		l39.9,32.1l100-13.7c180.1-25.4,280.1-46.1,287.2-57.1c16.1-25,8.3-109-12.5-147c-58.7-104.2-221.7-106.7-265-3.8
		c-19.1,42.9-12.3,93,15.6,118c10,9,38.9,20.1,63.9,22.2c38,5.1,48,2.1,70.1-19.8c14-14,26.1-36.9,26.2-50.9
		c0.1-31-45.8-69.1-76.8-63.2c-13,2-23-0.1-23-4.1c0.1-20,62-7.8,84.9,16.3c53.8,53.2,14.6,135-66.4,134.8
		c-126-0.4-160.6-128.5-58.3-214.2c43.1-34.9,131.1-36.6,181-2.4c56.9,38.2,78.7,81.2,78.5,153.2c-0.2,54,2.8,64,16.8,64.1
		c46-0.9,211.1-44.3,358.3-94.9l163.2-55.5l4.2-66c8.4-137,113.9-288.6,248.1-354.2c58.1-27.8,75.1-31.8,151.1-31.5
		c77,0.2,91,3.3,145.9,33.5c56.9,31.2,142.7,106.4,132.6,116.4c-2,2-33-14.1-68.9-35.2c-80.8-49.3-127.8-64.4-209.8-63.7
		c-114-0.4-205.2,65.4-270.6,193.2c-33.2,63.9-64.6,179.8-49.6,179.8c5,0,79.1-19.8,164.1-44.5c308.3-88,662.5-166.9,874.6-194.3
		c78-9.8,94-14.7,101.1-31.7c5-12,16.1-42,25.2-67.9c22.2-62.9,97.4-144.7,160.5-173.5c159.2-74.5,358.9,22.1,388.4,188.2l5.9,36
		l127,7.4c235,12.7,488.8,64.5,662.6,133.1c49.9,20.2,91.9,35.3,92.9,33.3c1-1,13.1-25,26.2-50.9c22.1-43.9,121.5-146.6,141.5-146.6
		c20,0.1,118.7,103.4,140.5,147.4c12.9,26,24.8,50.1,25.8,52.1c1,2,33-8.9,70.1-23.8c201.2-79.4,431.4-126.7,686.4-138.9l126-6.6
		l11.1-48c6.1-26,18.2-55.9,26.2-65.9c11-15,11-11-1.1,19c-8.1,21-15.2,50-15.2,66l-0.1,29l162,5.5c90,3.3,164,4.5,166,3.5
		c8-7-29.8-66.1-49.8-76.2c-29-16.1-95-5.3-131.1,20.6c-16,13-28.1,16.9-25,9.9c7.1-21,70.2-49.8,109.2-49.7
		c41,0.1,81.9,27.3,103.8,70.3c14.9,30,27.9,34.1,146.9,46.5l66,6.2l-8.9-42c-14.8-64-43.6-114.1-92.5-157.3
		c-105.7-93.3-268.7-96.8-376-7.2c-33.1,26.9-38.1,28.9-20,8.9c49.2-54.8,106.2-78.7,194.3-82.4
		C7788.3,2374.2,7806.3,2377.3,7849.2,2398.4z M4992.2,2386.5c-83.1,22.7-177.4,130.5-199.7,226.4l-7.1,35l66-5.8
		c119-11.6,132-15.6,147.1-45.5c22.1-42.9,63.2-69.8,104.2-69.7c39,0.1,101.9,29.3,108.8,50.3c3,7-9,3-25-10.1
		c-35.9-26.1-101.9-37.3-130.9-21.4c-20,9.9-58.2,68.8-50.2,75.8c2,1,77,0.2,167-2.5l163-4.5l-4.9-44
		C5316.1,2437.5,5145.3,2345,4992.2,2386.5z M6336.4,2658.7c-27.1,26.9-57.2,66.8-68.3,90.8l-19.1,42.9l22,16.1
		c12,10,46.9,30.1,76.9,46.2l54.9,28.2l55.1-27.8c30-15.9,65.1-35.8,77.1-45.8l22-15.9l-18.9-43.1
		c-23.8-51.1-107.6-139.3-134.6-139.4C6393.5,2610.9,6362.5,2632.8,6336.4,2658.7z M7475.4,2666.2c2.9,37-15.1,31,202.8,63.6
		c103,15.3,110,15.3,122-0.6c7-10,13.1-32,13.2-50c0.1-33,0.1-33-57.9-37.2c-31-2.1-108-4.3-170-5.5l-113-2.4L7475.4,2666.2z
		 M7113.4,2659.1c-191.1,24.4-182.1,28.4,67.9,30.2c130,1.4,247,4.8,259,8.8c19,6.1,23,4.1,23-12.9c0.2-52-4.8-54-121.9-47.4
		C7280.4,2640.6,7178.4,2650.3,7113.4,2659.1z M5349.4,2643.7c-3,9-6.1,25-6.1,35c-0.1,17,3.9,19,22,13.1c13-4,130-6.6,260-7.2
		c251-0.2,261-5.2,59.1-30.8C5434.5,2622.9,5358.5,2620.7,5349.4,2643.7z M5075.5,2633.8l-82,5.7l-0.1,32c-0.1,17,5.9,39,12.8,49
		c12,16,19,16.1,122,1.4c218.1-31.3,200.1-25.4,203.2-62.4l3.1-32l-88-0.3C5198.5,2627.2,5121.5,2629.9,5075.5,2633.8z
		 M7823.3,2684.3c-0.1,22-5.1,43-10.1,46c-6,3-10,9-10,13c0,9,198.9,46.6,205.9,39.6c3-3,8.1-30,11.2-60l6.2-55l-94-9.3
		c-52-6.2-97-11.3-102-12.3C7826.4,2646.3,7823.4,2663.3,7823.3,2684.3z M4864.4,2651.2l-84,6.7l5.8,55c2.9,30,7.8,57,10.8,60
		c7,7,206.1-29.4,206.1-38.4c0-4-5-10-10-13c-6-3-9.9-24-9.9-46c0.1-34-2.9-40-17.9-35.1C4956.4,2642.4,4910.4,2648.3,4864.4,2651.2
		z M8030.2,2733c-3.1,32-5.2,59-3.2,60c1,2,57.9,17.2,126.9,34.4c252.8,62.8,620.5,176.9,894.1,276.8l94.9,35.3l15.1-36
		c8.1-20,18.2-63.9,21.3-97.9l6.2-63l-63.9-21.2c-292.7-95.9-905.3-237.8-1054.2-244.3C8036.3,2676,8036.3,2677,8030.2,2733z
		 M4579.3,2690.3c-288.2,48.1-644.4,133-895.7,214.2l-64.1,20.8l5.8,63c2.9,34,12.8,78,20.7,98.1l14.9,36l95.1-34.7
		c274.3-98.2,642.7-210,895.8-271.2c69.1-16.8,126.1-31.6,127.1-33.6c2-1,0.1-28-2.8-60C4769.4,2654.9,4783.4,2656.9,4579.3,2690.3z
		 M6943.2,2704.6c-87,0.7-149,15.5-277.2,64.1l-93.1,35.7l5.9,41c3.9,22,7.9,42,8.9,44c1,1,18-3.9,37-11.9
		c77.1-32.8,233.2-55.3,371.2-54.9c279,0.9,539.8,74.7,780.3,220.4l59.9,36.2l42.1-47.9c44.1-47.9,128.6-199.6,121.7-219.6
		c-5-14-205.8-55.6-213.9-43.7c-12.1,19-110.2,56.7-148.2,56.5c-57-0.2-117.9-31.4-143.8-73.4c-19.9-33.1-25.9-36.1-83.9-41.3
		c-113-11.4-181-13.6-287-10.9C7065.3,2701,6984.2,2703.7,6943.2,2704.6z M5391.2,2703.8c-52,4.8-59,8.8-79.1,40.8
		c-26.1,41.9-87.2,72.7-144.2,72.6c-38-0.1-135.9-38.4-147.8-57.5c-8-12-209.1,28.4-214.1,42.3c-7.1,20,76.5,172.2,120.3,220.4
		l41.9,48.1l60.1-35.8c151.3-90.5,300.5-149.1,475.6-188.5c91.1-19.7,129.1-22.6,309.1-21c189,1.6,212,3.7,289.9,26.9
		c47,14.1,92.9,28.3,101.9,33.3c14,6,18,2.1,18-15.9c0-13,3.1-33,6.1-45c5.1-18-4.9-25-87.8-56.3c-140.8-54.4-194.8-66.6-323.8-68
		c-65-1.2-121-4.4-124-7.4C5688.3,2686.7,5492.3,2694.1,5391.2,2703.8z M7493.2,2725.3c0,6,14.9,26,32.9,44.1
		c40.9,41.1,92.8,53.3,156.9,36.5c46-11.9,95.1-38.7,87.1-46.7c-4-4-227.9-41.7-264.9-43.8
		C7499.2,2714.3,7493.2,2719.3,7493.2,2725.3z M5133.1,2733c-51,7.8-96,15.7-98.1,18.7c-7,7,43.9,34.1,87.9,46.3
		c63.9,17.2,116,5.4,157.1-35.5c18.1-17.9,33.1-37.9,33.1-43.9C5313.2,2706.5,5307.2,2707.5,5133.1,2733z M7998.8,2855.9
		c-22.2,59.9-80.5,152.8-124.6,196.6l-32.1,31.9l59.8,57.2c32.9,31.1,61.8,64.2,64.8,74.2c6.9,21,91.8,68.3,199.7,110.6
		c231.7,89.7,521.7,98.6,729.9,21.3l58.1-21.8l-23.9-19.1c-51.9-41.2-309.4-210-403.2-264.3c-183.7-106.6-448.3-230.4-505.3-235.6
		C8018.9,2805.9,8008.9,2828.9,7998.8,2855.9z M4672.8,2833.6c-83.1,31.7-269.4,124.2-396.6,195.8
		c-93.2,53.7-350.7,219.9-403.8,261.8l-24.1,18.9l57.9,22.2c206.8,78.6,498.8,71.5,730.1-16.7c108.1-41.7,193.3-88.4,200.3-109.4
		c3-10,32.1-42.9,65.2-73.8l60.2-56.8l-31.9-32.1c-43.9-44.1-101.6-137.3-123.4-197.4C4787,2788.9,4787,2788.9,4672.8,2833.6z
		 M6440.7,2877l-36.1,22.9l-77.9-44.2c-83.9-48.3-93.9-47.3-94,10.7c-0.1,26,5.9,34,29.9,44.1c17,7.1,54.9,28.2,84.9,46.3l54.9,33.2
		l55.1-32.8c30.1-17.9,68.1-38.8,85.1-45.7c23-9.9,30.1-18.9,30.1-39.9c0.2-57-6.8-62-52.9-38.2
		C6496.8,2844.2,6461.7,2864.1,6440.7,2877z M8192.8,2852.5c0,3,16,12,35.9,20.1c129.8,55.4,484.2,262.5,634.9,372l100.8,73.3
		l43.1-28.9c47.1-32.9,124.4-115.6,124.4-134.6c0.1-18-674.3-240.1-914.1-300.8c-11-2-21-5.1-23-6.1
		C8193.8,2847.5,8192.8,2848.5,8192.8,2852.5z M4357.6,2905.6c-187.2,52.4-685.7,220.9-685.7,231.9c-0.1,19,76.7,102.2,123.6,135.4
		l42.9,29.1l101.2-72.7c151.3-108.5,507-313.4,637.1-368C4662.9,2825.5,4585.8,2841.3,4357.6,2905.6z M6809.6,2903.2
		c-49,5.8-119.1,17.6-155.1,26.5l-67.1,16.8l-12.2,50c-19.3,83.9-19.3,84.9,23.8,72.1c59.1-16.8,247-12.2,343,8.1
		c46,10.1,140.9,37.4,209.8,59.7c122.9,40.4,126.9,41.4,269.9,41.8c147,0.5,231-12.3,317.2-49l38-15.9l-59.9-30.2
		c-150.8-77.5-387.5-149.2-576.5-174.8C7008.7,2891.8,6919.7,2889.5,6809.6,2903.2z M10552.5,2949.8
		c-63.1,19.8-124.2,56.6-234.4,143.3c-58.1,44.8-90.2,76.7-83.2,80.7c7,3,39,9.1,72,13.2c33,4.1,151.9,18.5,264.9,32.8
		c264.9,31.8,255.9,31.8,269-6.2c31.3-90.9-4.4-204-81.2-254.3C10705.6,2924.3,10643.6,2922.1,10552.5,2949.8z M2084.6,2913.5
		c-104.1,42.7-158.5,165.5-121.8,272.6c12.9,38,3.9,38,269,7.8c113-13.6,232.1-27.3,265.1-31.2c33-3.9,66-9.8,73-12.8
		c8-5-15.9-30-70.8-73.2c-101.7-82.3-165.6-121.5-242.5-153.8C2187.6,2894.9,2136.6,2891.7,2084.6,2913.5z M9195.9,3140.6
		c-4,12,28.9,28.1,162.8,77.5c201.8,73.6,245.7,86.8,522.5,154.6l214.8,51.7l190,1.6c255,0.8,392.1-29.8,483.3-107.5
		c60.2-50.8,56.2-59.8-35.8-69.1c-42-4.1-179.9-19.6-304.9-35.9l-228.9-28.7l-48.1,27.9c-58.1,33.8-130.2,59.6-167.2,59.5
		c-62-0.2-126.8-49.4-177.6-134.6c-7-12-46.9-25.1-119.9-41.4c-61-13.2-181.9-48.6-269.8-78.8l-159.8-54.5l-28.3,80.9
		C9214.1,3088.6,9198.9,3131.6,9195.9,3140.6z M3119.1,3075.7c-116.1,22.6-115.1,22.6-136.2,62.6
		c-33.2,63.9-104.3,111.7-165.3,111.5c-37-0.1-113.9-28.4-166.8-60.5l-46.9-28.1l-228.1,27.3c-126,15.6-264.1,30.2-307.1,34
		c-91,8.7-95.1,17.7-35.2,68.9c90.8,79.3,227.7,109.7,482.7,110.5c184-0.4,195-1.4,340.1-35.9c82.1-19.7,179.1-43.4,215.2-51.3
		c119.1-28.6,203.2-54.4,373.4-114.8c135.2-48.6,167.2-63.5,163.2-76.5c-3-9-17.8-52.1-32.7-97.1l-26.7-81.1l-174.2,57.5
		C3279.2,3034.2,3164.1,3066.9,3119.1,3075.7z M6473.3,2997.1l-71.1,34.8l-70.9-35.2c-69.9-35.2-98.9-44.3-98.9-29.3
		c0,5,5.9,30,12.8,57c13.8,53,12.8,52,98.7,90.3l57.9,25.2l57.1-24.8c87.1-37.7,86.1-36.7,100.3-89.7c7.1-27,13.2-52,13.2-57
		C6572.5,2953.4,6543.4,2962.4,6473.3,2997.1z M6444.9,3131.1c-41.1,17.9-42.1,17.9-103-7.3c-34-13.1-63.9-22.2-66.9-20.2
		c-11,12,107.4,197.3,126.4,197.4c15,0,130.5-169.6,130.6-192.6C6532,3098.3,6504,3106.2,6444.9,3131.1z M9821.9,3134.5
		c-0.1,27,69.7,96.2,114.7,112.4c38,15.1,51.9,16.2,92,5.3c51-11.8,146.2-59.5,138.2-67.6c-4-4-157.9-32.5-337.8-62
		C9825,3122.5,9821.9,3127.5,9821.9,3134.5z M2811.9,3129.8c-202.1,30.4-193.1,26.4-145.2,55.6c112.8,69.3,197.8,65.6,272-11.2
		c45.1-45.9,57.2-78.8,25.2-69.9C2955,3106.2,2885.9,3118,2811.9,3129.8z"/>
	<path class="st0" d="M11938.8,2864.1c85.9,42.3,68.5,169.2-31.7,234.9c-90.2,59.7-315.4,119-495.4,131.5c-60,4.8-50,1.8,50-13.8
		c256.1-39.2,411.3-91.7,480.5-163.5c31.1-31.9,35.1-41.9,35.3-90.9c0.1-47-3.8-59-23.8-75.1c-25.9-21.1-80.9-25.3-112-8.3
		c-30,14.9-42.2,56.9-28.3,90.9c8.9,23,17.9,28.1,43.9,28.1c19,0.1,41-6.9,49-15.8c19.1-17.9,19.1-19.9,6.1-45
		c-11.9-21-39.9-25.1-58-7.2c-9,9-12,9-12,0c0.1-21,49.1-25.8,70-6.8c35.9,33.1,15.8,76-42.3,89.9c-21,4.9-33,0.9-51.9-19.2
		c-33.9-33.1-32.8-68.1,1.3-105C11854.8,2851.8,11897.8,2842.9,11938.8,2864.1z"/>
	<path class="st0" d="M12489,3106.8c7,3,12.9,18,12.9,34c-0.2,76-84.5,155.7-183.5,173.4c-31,5.9-37,3.9-37-9.1
		c0.1-20,34.3-88.9,64.4-128.8C12379.9,3130.4,12456.1,3093.7,12489,3106.8z"/>
	<path class="st0" d="M407,3092.3c16,10,37.9,30.1,47.9,42.1c28.9,36.1,77.6,143.2,66.5,146.2c-5,2-34-4.1-65-12.2
		C368.5,3242.2,301.8,3171,302,3102c0.1-28,2.1-30,37.1-29.9C360.1,3072.2,390,3081.3,407,3092.3z"/>
	<path class="st0" d="M12728.5,3291.5c55,16.2,85.8,74.3,66.6,124.2c-9.1,24-58.1,44.8-102.1,44.7c-74-0.2-268.8-78.8-264.7-105.8
		c2-15,150.2-62.5,213.2-68.3C12671.5,3283.3,12710.5,3285.5,12728.5,3291.5z"/>
	<path class="st0" d="M198.5,3252.7c62,10.2,173.8,51.5,175.8,64.5c4.9,27-192.3,104.4-265.3,104.2c-44-0.1-92.9-21.3-101.9-45.3
		c-21.8-58.1,7.3-111,69.4-124.8C122.5,3240.5,127.5,3240.5,198.5,3252.7z"/>
	<path class="st0" d="M12349.1,3395.3c58.9,29.2,94.8,71.3,109.6,127.3c10.9,41,0.7,87-18.3,86.9c-28-0.1-79.9-32.2-103.8-63.3
		c-29.9-39.1-65.6-125.2-65.5-157.2C12271.2,3363.1,12287.2,3364.2,12349.1,3395.3z"/>
	<path class="st0" d="M531.2,3352.7c-0.1,34-39.4,123.9-70.5,161.8c-33.1,38.9-95.2,66.7-112.2,49.7c-30.9-31.1,2.4-135,55.5-174.8
		C477.3,3334.6,531.3,3318.7,531.2,3352.7z"/>
	<path class="st0" d="M4651.1,3720.5c107.9,38.3,178.7,102.6,178.5,162.6c-0.1,41-27.2,50.9-86.1,27.7
		c-51.9-20.2-94.8-67.3-118.6-128.4C4601.1,3718.3,4606.1,3705.4,4651.1,3720.5z"/>
	<path class="st0" d="M8315,3744.8c71.9,30.2,114.8,63.4,135.7,104.4c28.8,57.1,22.7,82.1-21.3,85.9c-57,4.8-120.9-43.4-158.6-119.5
		c-16.9-34.1-30.8-68.1-30.8-76.1C8240.1,3722.6,8266.1,3723.7,8315,3744.8z"/>
	<path class="st0" d="M8190,3743.5c-0.1,28-45.4,115.9-71.4,139.8c-34.1,30.9-97.2,55.7-125.2,48.6c-30-8.1-31.9-48.1-4.7-92
		C8035,3765,8190.2,3691.5,8190,3743.5z"/>
	<path class="st0" d="M4554,3742.2c-14.2,59-55.4,122.8-93.5,148.7c-50.1,32.8-118.1,43.6-127.1,19.6
		c-18.8-50.1,65.5-149.8,151.6-179.5C4553.1,3708.2,4562.1,3710.2,4554,3742.2z"/>
	<path class="st0" d="M8248.5,3926.6c32.8,70.1,60.5,168.2,60.3,211.2c-0.3,103-105.5,157.7-157.3,80.5
		c-35.8-54.1-13.4-209,48-321.9l18.1-34.9L8248.5,3926.6z"/>
	<path class="st0" d="M4616.5,3921.4c88.4,200.3,50.9,362.2-72,309.8c-65.9-28.2-70.6-121.2-14.2-266
		C4577.7,3842.3,4580.7,3841.3,4616.5,3921.4z"/>
</g>
</svg>
